# xmcd
#
# Track frame offsets: 
#        150
#        18173
#        31493
#        43838
#        57008
#        75758
#        90548
#        108901
#        121179
#        131619
#        149132
#        159977
#        174925
#        185433
#        199166
#        207146
#        223249
#        241729
#        256219
#        269419
#        281449
#        293997
#        305487
#
# Disc length: 4283 seconds
#
# Revision: 2
# Processed by: cddbd v1.5.2PL0 Copyright (c) Steve Scherf et al.
# Submitted via: ExactAudioCopyFreeDBPlugin 1.0
#
DISCID=4310b917
DTITLE=Various Artist - The All Time Greatest Songs - Country CD 1
DYEAR=2001
DGENRE=Country
TTITLE0=Trisha Yearwood - How Do I Live
TTITLE1=Kenny Rogers - Ruby Don't Take Your Love To Town
TTITLE2=Nilsson - Everybody's Talkin'
TTITLE3=Charlie Rich - Behind Closed Doors
TTITLE4=Juice Newton - Angel Of The Morning
TTITLE5=Bob Dylan - Lay Lady Lay
TTITLE6=Olivia Newton-John - I Honestly Love You
TTITLE7=Patsy Cline - Crazy
TTITLE8=Jim Reeves - He'll Have To Go
TTITLE9=Linda Rondstadt - Blue Bayou
TTITLE10=Dolly Parton, Loretta Lynn and Tammy Wynette - Silver Threads A
TTITLE10=nd Golden Needles
TTITLE11=Billy Jo Spears - I Will Survive
TTITLE12=The Everly Brothers - Bye Bye Love
TTITLE13=Reba McEntire - Cathy's Clown
TTITLE14=John D. Loudermilk - Language Of Love
TTITLE15=Shania Twain - Honey, I'm Home
TTITLE16=Kris Kristofferson - Me And Bobby McGee
TTITLE17=John Denver - Take Me Home Country Roads
TTITLE18=Lynn Anderson - Rose Garden
TTITLE19=Glen Campbell - By The Time I Get To Phoenix
TTITLE20=Roy Orbison - Crying
TTITLE21=Crystal Gayle - Don't It Make My Brown Eyes Blue
TTITLE22=Willie Nelson - Always On My Mind
EXTD=
EXTT0=
EXTT1=
EXTT2=
EXTT3=
EXTT4=
EXTT5=
EXTT6=
EXTT7=
EXTT8=
EXTT9=
EXTT10=
EXTT11=
EXTT12=
EXTT13=
EXTT14=
EXTT15=
EXTT16=
EXTT17=
EXTT18=
EXTT19=
EXTT20=
EXTT21=
EXTT22=
PLAYORDER=
